<?xml version="1.0" encoding="utf-8"?>
<!-- Generator: Adobe Illustrator 27.0.1, SVG Export Plug-In . SVG Version: 6.00 Build 0)  -->
<svg version="1.1" id="Layer_1" xmlns="http://www.w3.org/2000/svg" xmlns:xlink="http://www.w3.org/1999/xlink" x="0px" y="0px"
	 width="400px" height="15px" viewBox="0 0 400 15" style="enable-background:new 0 0 400 15;" xml:space="preserve">
<style type="text/css">
	.st0{fill:#EAB308;}
</style>
<g>
	<g>
		<path class="st0" d="M228.2,6.9L400,8.1L228.2,9.3C226.6,9.3,226.6,7,228.2,6.9L228.2,6.9z"/>
		<g>
			<path class="st0" d="M171.9,9.3L0,8.1l171.8-1.2C173.4,7,173.5,9.3,171.9,9.3L171.9,9.3z"/>
		</g>
		<polygon class="st0" points="216.2,3.3 217.6,6.1 220.7,6.5 218.4,8.7 219,11.8 216.2,10.3 213.4,11.8 214,8.7 211.7,6.5 
			214.8,6.1 		"/>
		<polygon class="st0" points="200,0.4 202.3,5.1 207.5,5.8 203.7,9.5 204.6,14.6 200,12.2 195.4,14.6 196.3,9.5 192.6,5.8 
			197.7,5.1 		"/>
		<polygon class="st0" points="183.9,3.3 185.2,6.1 188.3,6.5 186.1,8.7 186.6,11.8 183.9,10.3 181.1,11.8 181.6,8.7 179.4,6.5 
			182.5,6.1 		"/>
	</g>
</g>
</svg>
