<?xml version="1.0" encoding="utf-8"?>
<!-- Generator: Adobe Illustrator 27.0.1, SVG Export Plug-In . SVG Version: 6.00 Build 0)  -->
<svg version="1.1" id="Layer_2_00000132066395119494497730000008085745345163528583_"
	 xmlns="http://www.w3.org/2000/svg" xmlns:xlink="http://www.w3.org/1999/xlink" x="0px" y="0px" width="680px" height="310px"
	 viewBox="0 0 680 310" style="enable-background:new 0 0 680 310;" xml:space="preserve">
<style type="text/css">
	.st0{fill:#FFFFFF;}
	.st1{fill:#EAB308;}
</style>
<g>
	<g>
		<path class="st0" d="M168.9,275c-51.4,62.8-153.2,36.6-167.4-43.4c-9.5-53,27.8-98.9,67.9-128.5c24.5-18,51.5-32.6,79-44.9
			c2.8-1.3,6.2,0,7.5,2.8v0.2c1,2.3,0,4.8-2.2,6c-22.5,11-44.5,23.1-64.7,37.4c-2.7,2-9.3,6.8-11.8,8.8c-2.3,2-8.8,7.3-11.3,9.3
			l-7.2,6.6c-18.5,17.5-34.5,38.6-40.8,63.2c-10.2,35.9,7.3,76.1,40.5,93.4c80,40.4,156.6-51.7,104.5-123.5
			c-11.5-15.8-29-27.3-48.2-32.1c-1-0.2-1.7-1-1.7-2c0,0-0.3-1,0.7-1.5c1.3-0.7,2-0.5,3.5-0.2C182.1,139.9,213.4,219.8,168.9,275z"
			/>
	</g>
	<g>
		<path class="st0" d="M257.4,11.2c-1.2-2.8-15.8,0-32.8,7.5c-10.8-7.1-35.7-22.6-39.7-17.8c-4.2,5.2,10.2,20.3,20.5,27.9
			c-20.3,12.5-30.7,21.6-30.7,21.6l-10.5-3c-1.3-0.3-2.3,1.3-1.2,2.2l7.7,6.3c0,0,0,11.1,2.2,11.6c2.2,0.3,3.7-11.6,3.7-11.6
			s19.2-8,37.8-16.3c0,11.5,1,32.2,9,32.2c9,0,8.3-25.1,7.2-39.7c0.5-0.2,1-0.5,1.5-0.7C253.2,21.4,258.8,14.9,257.4,11.2z"/>
	</g>
	<g>
		<g>
			<path class="st1" d="M106.7,158.5c-3.3-4.8-7.2-9.3-11.5-13.1c-0.2-0.2-0.3-0.2-0.5-0.2c-5,0.3-10,1.3-14.7,2.8
				c-0.2,0-0.3,0.2-0.3,0.3c-2.5,4.3-4.7,8.8-6.7,13.5c-0.2,0.3,0,0.8,0.5,1c10.8,2.2,22.3,0.8,32.8-3.3
				C106.9,159.5,107,158.8,106.7,158.5z"/>
		</g>
		<g>
			<path class="st1" d="M69,161.2c1.5-3.2,3-6.3,4.7-9.3c0.3-0.5-0.3-1.2-0.8-1c-4.2,1.8-8,4-11.7,6.6c-0.3,0.3-0.3,1,0.2,1.2
				c2.3,1.2,4.7,2.2,7,2.8C68.5,161.7,68.9,161.5,69,161.2z"/>
		</g>
		<g>
			<path class="st1" d="M71.4,262.7c0.2-0.2,0.3-0.5,0.2-0.8c-7-11.1-11.7-23.4-13.2-36.6c0-0.5,0-1-0.2-1.5
				c-8.2,0-16.2-0.5-24.3-1.5c-0.5,0-0.8,0.3-0.7,0.8c3,19.6,14.3,36.4,30.3,46.7c0.3,0.2,0.7,0.2,0.8-0.2
				C66.5,267,68.9,264.9,71.4,262.7z"/>
		</g>
		<g>
			<path class="st1" d="M64.4,216.8c20.3-1.7,40.5-5.8,60.5-11.1c0.3-0.2,0.5-0.5,0.5-0.8c-1.8-12.3-5.5-24.3-11.5-35.2
				c-0.7-1.2-1.3-2.2-2-3.3c-0.2-0.3-0.5-0.3-0.8-0.3c-12.8,4.3-26.8,5.2-39.5,1.5c-0.3-0.2-0.7,0-0.8,0.3
				c-5.5,15.5-8.2,32.1-7.2,48.2C63.5,216.5,63.9,216.8,64.4,216.8z"/>
		</g>
		<g>
			<path class="st1" d="M116.2,164.8c7.3,11.8,12.2,24.9,14.7,38.4c0,0.3,0.5,0.7,0.8,0.5c11.2-3.2,22.2-6.6,33-10.1
				c0.3-0.2,0.5-0.5,0.5-0.8c-5.2-16.5-16.3-30.3-31.2-38.7c-0.2-0.2-0.5-0.2-0.7,0c-5.2,4-10.8,7.3-16.8,9.8
				C116,164.1,115.9,164.5,116.2,164.8z"/>
		</g>
		<g>
			<path class="st1" d="M127,260.7c0-0.3-0.2-0.7-0.5-0.7c-9.5-3.3-19.7-4.5-29.7-3.2c-5.5,0.8-10.7,2.7-15.3,5.3
				c-0.3,0.2-0.5,0.7-0.2,1c5,6.5,11,12.1,17.5,17.1c0,0,0,0,0.2,0c0.5,0,0.8,0,1.3,0c8,0,15.7-1.3,22.8-3.8
				c0.2-0.2,0.3-0.3,0.5-0.5C125.2,271,126.4,265.9,127,260.7z"/>
		</g>
		<g>
			<path class="st1" d="M57.8,216.7c-0.5-16.8,2.7-34.1,9-50c0.2-0.3,0-0.7-0.3-0.8c-3.2-1.3-6.2-2.8-9.2-4.8
				c-0.2-0.2-0.5-0.2-0.8,0c-14.7,12.5-24.2,30.9-24.2,51.7c0,1.2,0,2.5,0.2,3.7c0,0.3,0.3,0.7,0.7,0.7c8,0.5,16,0.5,24,0.2
				C57.5,217.3,57.8,217,57.8,216.7z"/>
		</g>
		<g>
			<path class="st1" d="M142.2,212.4c-3,0.7-6,1.3-9,2c-0.3,0-0.5,0.3-0.5,0.7c1.7,12.6,3.2,25.4,2.7,38.2c0,0.3,0.2,0.5,0.3,0.7
				c4.3,1.7,8.3,3.7,12.3,6.2c0.3,0.2,0.7,0.2,0.8-0.2c12-12.1,19.3-28.9,19.3-47.4c0-1.8-0.2-3.8-0.2-5.7c0-0.3-0.5-0.7-0.8-0.7
				C158.9,208.7,150.4,210.4,142.2,212.4z"/>
		</g>
		<g>
			<path class="st1" d="M134.4,271.4c2-1.2,3.8-2.3,5.7-3.7c0.3-0.3,0.3-0.8,0-1.2c-1.5-1-3-1.8-4.7-2.8c-0.3-0.2-0.8,0-1,0.5
				c-0.3,2.2-0.7,4.3-1,6.3C133.2,271.2,133.9,271.7,134.4,271.4z"/>
		</g>
		<g>
			<path class="st1" d="M104.2,149.2c2.3,2.5,4.5,5.2,6.7,8c0.2,0.3,0.5,0.3,0.8,0.2c4.2-2,8-4.3,11.5-7.1c0.5-0.3,0.3-1-0.2-1.2
				c-7.2-2.5-14.8-4-22.8-4H100C101.5,146.4,102.9,147.7,104.2,149.2z"/>
		</g>
		<g>
			<path class="st1" d="M77.4,257.6c0.2,0.3,0.7,0.3,0.8,0.2c13.7-8.6,30.3-11.5,49.2-6.5c0.2,0,0.3,0.2,0.5,0.2
				c0,0,0.2-0.2,0.2-0.3c0.7-11.5-0.3-23.1-1.3-34.4c0-0.3-0.3-0.7-0.8-0.7c-20,4.2-40.3,7.1-60.9,7.8c-0.3,0.3-0.3,0.5-0.7,0.8
				C66,236.5,70.7,247.6,77.4,257.6z"/>
		</g>
		<g>
			<path class="st1" d="M74.2,267c-1.8,1.5-3.7,3-5.5,4.7c-0.3,0.3-0.3,0.8,0.2,1.2c4.3,2.3,9,4.2,13.8,5.3c0.7,0.2,1.2-0.7,0.7-1.2
				c-3-3.2-5.7-6.5-8.2-10C74.9,266.9,74.5,266.9,74.2,267z"/>
		</g>
	</g>
	<g>
		<g>
			<path class="st0" d="M287.8,112l-0.8,3.1c-0.3,1.1-0.5,2-0.8,2.8s-0.3,1.2-0.5,2c0,0.5-0.3,1.1-0.5,1.8
				c-3.4,14.7-6.1,23.8-8.1,27.6c-1.1,1.5-2.3,3.1-4.3,4.3c-6.1,3.8-10.7,5.8-14.1,5.8c-2.3,0-4.3-0.8-6.1-2.6
				c-1.5-1.8-2.6-3.8-2.6-6.4c0-4.6,2-13.2,6.1-25.8c1.2-4.1,2.3-7.4,3.4-10.4c1.1-3.1,2.3-6.4,3.8-10c1.5-3.8,3.1-7.7,4.9-11.7
				c1.8-4.1,3.1-7.2,3.8-8.9c-6.4,1.1-12.3,1.2-18.1,1.2c-5.8,0-8.7-2-8.7-6.1c0-2.6,1.8-5.8,5.7-10c2.6-2.6,4.9-4.3,7.2-5.4
				c2.3-1.1,4.9-1.5,8-1.5c2,0,4.9,0,8.1,0.3c3.5,0,8.4,0.5,14.6,0.8l2,0.3l2,0.3c5.4,0.3,8.7,0.5,10.4,1.1c1.8,0.3,3.1,1.1,4.3,2.3
				c1.1,1.1,1.5,2.3,1.5,3.8c0,1.5-0.3,3.1-0.8,4.6s-1.2,2.8-2.3,3.5c-1.2,1.2-4.6,2.6-10,3.4c-0.5,0-1.1,0-1.5,0.3l-1.5,0.3
				c1.1,1.1,1.8,2.3,1.8,3.8c0,1.2-0.8,4.3-2,8.7c-0.5,1.1-1.5,4.6-3.1,10.7l-1.1,4.3L287.8,112z"/>
			<path class="st0" d="M315.7,159.2c-2-0.3-4.1-1.1-5.8-2.8c-1.8-1.8-3.1-4.1-3.8-6.1c-0.8-2.3-1.1-5.1-1.1-8.7
				c0-8,1.5-16.9,4.3-26.5c2.8-10,6.1-17,10-21.5c1.5-1.8,3.5-2.8,6.1-2.8c2.8,0,5.1,1.2,6.6,3.8c1.8,2.6,2.6,5.8,2.6,10
				c0,6.1-0.8,13-2.6,21.2s-4.1,16.6-7.4,25.3c-1.2,3.5-2.8,5.8-4.6,7.2C319,158.6,317.8,159.2,315.7,159.2L315.7,159.2z
				 M324.4,87.3c-4.6-0.3-6.6-2.8-6.6-8.1c0-2.6,0.8-5.7,2-9.2c1.2-3.5,2.8-6.1,4.3-7.7c0.8-1.1,1.8-1.5,2.6-2
				c0.8-0.3,2-0.5,3.4-0.5c2.3,0,4.1,0.5,5.4,1.8c1.1,1.2,1.8,3.1,1.8,5.8c0,3.4-0.5,6.6-1.8,9.7c-1.2,3.1-2.8,5.4-4.6,7.4
				C328.7,86.6,326.7,87.3,324.4,87.3L324.4,87.3z"/>
			<path class="st0" d="M419.9,132.7l-19.5,19.9c-2.6,2.6-4.6,4.3-6.1,5.1c-1.5,1.1-3.4,1.2-5.1,1.2c-2.8,0-5.4-1.1-7.4-3.4
				c-2-2-3.1-4.9-3.1-8c0-2,0.3-4.1,0.8-6.4s1.8-5.8,3.5-10.1c0.3-1.1,0.8-1.8,1.1-2.6c0.3-0.8,0.5-1.2,0.8-1.8l-0.3-0.3
				c-4.6,4.9-9.2,10-13.5,15.3c-3.8,4.3-6.6,7.7-8.9,10c-2.3,2.3-4.1,3.8-5.8,4.9c-1.8,1.1-3.4,1.5-4.6,1.5c-3.1,0-5.7-1.2-7.4-3.5
				c-1.8-2.6-2.8-5.7-2.8-10c0-5.4,2.3-13.8,6.9-25.8c4.1-10.4,7.2-17.6,9.5-21.2c3.4-4.9,7.2-7.4,11.2-7.4c2.6,0,4.6,0.5,6.4,1.8
				c1.8,1.2,2.6,2.8,2.6,4.9c0,3.5-1.2,8.9-4.1,16.3c-1.1,2.8-2,5.8-3.4,9.2l0.3,0.3c1.8-2,4.6-5.4,8.4-10
				c6.6-8.1,11.8-14,15.3-16.9c4.3-4.1,8.4-6.1,12.3-6.1c1.5,0,3.1,0.5,4.6,1.5s2.6,2.6,3.5,4.3c0.8,1.8,1.2,3.8,1.2,5.8
				c0,2-1.5,7.4-4.3,15.8c-0.5,1.8-1.1,3.1-1.5,4.1c-0.3,1.1-0.8,1.8-1.1,2.6l0.3,0.3c0.8-0.8,1.2-1.2,1.8-1.8s1.1-1.1,1.8-1.8
				c0.8-0.5,1.2-1.2,1.8-1.8c1.2-1.2,4.6-4.6,9.7-9.7c3.4-3.8,6.1-6.4,8.1-8c2-1.5,3.8-2,5.7-2c3.1,0,5.1,1.1,6.6,3.1
				c1.5,2,2.3,5.1,2.3,8.9c0,2.6-0.5,6.4-1.1,11.5c-0.8,5.8-1.1,10.4-1.2,13.8c-0.2,3.4-0.5,5.7-0.5,7.2c0,1.1,0,2.3,0.3,3.8
				c0,1.5,0.3,3.4,0.5,4.9c0.3,1.8,0.8,3.8,1.1,5.8c0.5,2.6,1.1,4.6,1.1,6.1c-0.3,1.8-1.5,3.1-3.8,4.3c-2,1.2-4.3,1.8-6.9,1.8
				c-3.8,0-7.7-1.8-11-5.4c-1.5-1.5-2.8-3.4-3.5-4.9c-0.8-1.5-1.5-3.5-1.8-5.8c-0.3-2.3-0.5-5.4-0.5-8.9c0-2.6,0.3-7.4,0.8-15
				l-0.3-0.3L419.9,132.7z"/>
			<path class="st0" d="M479.9,138.5c0.5,2.8,2.3,4.3,5.7,4.3c3.5,0,8.1-2,14.1-6.4c3.4-2.6,5.7-3.5,6.6-3.5c1.5,0,2.8,0.3,4.1,1.1
				c1.2,0.8,1.8,1.5,1.8,2.3c0,0.8-0.8,2-2,3.4c-2.6,2.6-5.4,5.1-8.7,7.4c-3.4,2.3-6.4,4.3-9.5,6.1c-3.1,1.5-6.1,2.8-9.2,3.8
				s-5.8,1.2-8.1,1.2c-5.8,0-10.7-1.8-14.3-5.1c-3.5-3.4-5.4-8-5.4-13.5c0-4.3,1.1-9.2,2.8-14.7c1.8-5.4,4.3-10.4,7.7-15.3
				c3.8-5.7,8.4-10.1,13.8-14c6.9-4.6,13.3-6.6,19.5-6.6c4.6,0,8,1.5,10.4,4.3c2.5,2.8,3.8,6.6,3.8,11.7c0,3.8-1.1,8-3.1,12
				c-2,4.1-5.1,8.1-8.9,12c-3.4,3.4-6.4,5.8-9.5,7.7s-5.8,2.8-8.1,2.8C481.9,139.3,480.8,139,479.9,138.5z M479.6,136.2
				c2.3-1.5,3.8-3.1,5.1-4.3c2.6-3.1,4.6-6.6,5.8-10.7c1.1-2.6,2-5.7,2.6-8.7c0.5-3.4,1.1-6.4,1.1-9.2c0-2.6-0.5-3.8-1.5-3.8
				c-1.5,0-3.8,3.4-6.9,10c-1.8,4.1-3.4,8.1-4.6,12c-1.2,4.1-1.8,7.4-1.8,10.4C479.1,132.9,479.3,134.4,479.6,136.2z"/>
			<path class="st0" d="M570.1,89.3l0.3-0.8c3.1-8.9,5.8-15,8.1-18.6c1.1-1.8,2.6-3.4,4.6-4.6c3.5-2.3,7.2-3.5,10.4-3.5
				c1.8,0,3.4,0.5,4.3,1.2c1.1,0.8,1.5,2,1.5,3.8c0,1.1-0.8,3.4-2,6.6c-2.6,5.7-4.3,10.9-5.4,15.8c0.8,0,1.5,0.3,2.3,0.5
				c2.8,0.5,4.9,1.1,5.7,1.5c1.1,0.5,1.2,1.5,1.2,3.1c0,2.6-0.8,4.9-2,6.9c-1.2,2-3.1,3.8-5.1,4.6c-1.5,0.8-4.1,1.2-7.7,1.5
				c-0.5,1.8-1.2,4.3-2,7.7c-0.5,2.8-1.1,6.9-1.5,11.7c-0.3,1.8-0.5,3.5-0.5,5.1c0,7.4,3.5,11.2,11,11.2h0.5h0.3
				c0.8,0,1.2,0.3,1.2,0.5c0,0.8-0.8,2-2.6,3.8c-1.5,1.8-3.4,3.4-5.4,4.9c-2,1.5-4.3,2.6-6.9,3.4c-2.6,0.8-4.9,1.2-6.6,1.2
				c-5.1,0-9.2-1.8-12.3-5.1c-3.1-3.4-4.6-8-4.6-13.5c0-2.3,0.5-5.7,1.2-9.5c0.8-3.8,2-8.9,3.8-15.5c0.3-1.1,0.5-2.3,1.1-3.5
				c0.3-1.2,0.5-2,0.5-2.3c-1.8,0-3.4-0.5-4.1-1.2c-0.8-0.8-1.2-2-1.2-3.8c0-3.1,1.2-5.8,3.5-8.4C564.2,91.6,567,90.1,570.1,89.3z"
				/>
			<path class="st0" d="M654.7,86.6c7.2,0,10.7,0.8,10.7,2.6c0,1.8-1.5,2.8-4.9,3.1c-3.8,0.3-7.4,1.2-10.7,3.4c-3.4,2-6.4,4.6-8.9,8
				c-2.6,3.4-4.6,7.2-6.1,11.5c-1.5,4.3-2.3,8.7-2.3,13.5c0,5.1,1.2,9.5,3.5,12.4c2.6,3.1,5.7,4.9,9.5,4.9c3.5,0,6.9-1.8,9.5-5.7
				c2.8-3.8,4.1-8.1,4.1-13c0-4.1-0.8-8-2.6-11.5c-1.8-3.5-4.1-6.6-7.4-8.9c-1.2-1.1-2-1.8-2-2.3c0-0.8,1.1-1.8,2.8-3.1
				c2.3-1.5,4.6-2.8,7.4-3.8s5.1-1.5,6.9-1.5c2,0,4.1,0.5,6.1,1.8c2,1.1,3.5,2.8,5.1,4.9c1.5,2,2.6,4.3,3.4,7.2
				c0.8,2.8,1.2,5.7,1.2,8.7c0,5.1-1.1,10-2.8,15c-1.8,4.9-4.3,8.9-7.4,12c-4.1,3.8-8.9,6.9-14.6,9.5s-11,3.5-16.1,3.5
				c-4.9,0-10-0.8-14.9-2.6c-4.9-1.8-8.7-4.1-11.5-6.9c-3.8-3.8-5.7-9.2-5.7-16.3c0-5.7,1.2-10.9,4.1-16.6c2.9-5.7,6.4-10.4,11-15
				c4.6-4.6,9.7-8.1,15.3-10.7C643.2,87.8,648.9,86.6,654.7,86.6z"/>
		</g>
		<g>
			<path class="st0" d="M287.7,259.7l-0.8,3.1c-0.3,1.1-0.5,2-0.8,2.8c-0.3,0.8-0.3,1.2-0.5,2c0,0.5-0.3,1.1-0.5,1.8
				c-3.4,14.7-6.1,23.8-8.1,27.6c-1.1,1.5-2.3,3.1-4.3,4.3c-6.1,3.8-10.7,5.8-14.1,5.8c-2.3,0-4.3-0.8-6.1-2.6
				c-1.5-1.8-2.6-3.8-2.6-6.4c0-4.6,2-13.2,6.1-25.8c1.2-4.1,2.3-7.4,3.4-10.4c1.1-3.1,2.3-6.4,3.8-10c1.5-3.8,3.1-7.7,4.9-11.7
				c1.8-4.1,3.1-7.2,3.8-8.9c-6.4,1.1-12.3,1.2-18.1,1.2c-5.8,0-8.7-2-8.7-6.1c0-2.6,1.8-5.8,5.7-10c2.6-2.6,4.9-4.3,7.2-5.4
				c2.3-1.1,4.9-1.5,8-1.5c2,0,4.9,0,8.1,0.3c3.5,0,8.4,0.5,14.6,0.8l2,0.3l2,0.3c5.4,0.3,8.7,0.5,10.4,1.1c1.8,0.3,3.1,1.1,4.3,2.3
				c1.1,1.1,1.5,2.3,1.5,3.8s-0.3,3.1-0.8,4.6s-1.2,2.8-2.3,3.5c-1.2,1.2-4.6,2.6-10,3.4c-0.5,0-1.1,0-1.5,0.3l-1.5,0.3
				c1.1,1.1,1.8,2.3,1.8,3.8c0,1.2-0.8,4.3-2,8.7c-0.5,1.1-1.5,4.6-3.1,10.7l-1.1,4.3L287.7,259.7z"/>
			<path class="st0" d="M323.6,284.4l-0.3,1.5c0,0.8,0,2-0.3,3.5c-0.3,2.3-0.5,4.3-0.8,5.7c-0.3,1.5-0.8,2.8-1.5,3.5
				c-0.8,1.1-1.5,2-2.8,3.1c-3.5,3.4-6.9,4.9-10.4,4.9c-2.8,0-4.9-1.1-6.4-3.1c-1.2-2-2-5.4-2-10.1c0-3.8,0.5-8.4,1.2-13.8
				c0.8-5.4,1.8-10.4,3.1-14.7l0.5-1.8c0-0.3,0.3-0.8,0.5-1.8c1.8-6.4,3.4-11.2,4.9-14.3c1.5-3.1,3.4-5.7,5.4-7.7
				c1.8-1.5,3.8-2.3,6.4-2.3c3.4,0,5.4,2,6.1,6.1c0.8-0.5,1.2-1.2,2-2c1.2-1.8,2.6-2.8,3.4-3.4c0.8-0.6,1.5-0.8,2.6-0.8
				c4.1,0,6.1,4.1,6.1,12.3c0,4.3-0.5,8.7-1.5,12.7c-1.1,4.1-2,7.4-3.5,10.1c-1.5,2.6-2.8,3.8-4.3,3.8c-1.5,0-2.3-3.1-2.3-8.9
				c0-3.1-0.3-5.7-0.5-7.4c-0.3-1.8-1.1-3.1-1.8-4.1c-1.5,2.6-2.3,8.7-2.8,18.4C324,279.3,323.9,282.8,323.6,284.4z"/>
			<path class="st0" d="M395.9,285.1v0.3l-0.3-0.3c-4.3,5.1-8.4,9.5-12.3,12.7c-3.5,3.4-7.2,5.8-10.3,7.4c-3.1,1.8-5.8,2.6-8.7,2.6
				c-5.4,0-9.7-1.8-13.3-5.4c-3.5-3.5-5.1-8.1-5.1-13.5c0-3.4,0.8-7.4,2.6-12c1.8-4.6,4.1-9.2,7.2-13.5c5.1-7.2,11.2-13.2,18.9-18.4
				c8-5.1,15.3-8,22.5-8c6.1,0,11.2,1.2,15,3.8s5.8,5.7,5.8,9.5c0,2.8-1.1,5.8-2.8,8.9c2.6,0,4.1,0.3,4.9,0.8
				c0.8,0.5,1.1,1.8,1.1,3.8c0-0.3,0,0.8-0.3,2.8c-0.3,4.6-0.5,9.2-0.5,13.2c0,2,0,3.8,0,4.9s0.3,2.3,0.3,3.8
				c0.3,1.5,0.3,2.6,0.5,3.4c0.3,2.3,1.1,4.3,1.8,6.6c-2.8,2.8-5.7,4.9-8.1,6.1c-2.6,1.2-5.4,2-8,2c-7.4,0-11-6.1-11-18.4
				C395.9,287.1,395.9,286.2,395.9,285.1z M400.2,268.7l-1.2,0.5c-3.4,1.1-5.8,1.5-7.4,1.5c-1.8,0-2.8-0.5-2.8-1.5
				c0-0.3,0.3-1.2,1.1-2.6c2.6-4.1,4.1-8,4.1-11.5c0-2-0.3-3.8-1.1-5.7c-0.8-1.8-1.5-2.6-2.3-2.6c-0.8,0-2,0.8-3.5,2.6
				c-4.3,4.9-8,9.7-10.4,14.7c-2.6,5.1-3.8,9.5-3.8,13.5c0,2.6,0.5,4.9,1.5,6.4c1.1,1.8,2.3,2.6,4.1,2.6c1.2,0,4.1-1.5,7.7-4.3
				c3.8-3.1,8-6.9,12.7-11.7l2-1.5L400.2,268.7z"/>
			<path class="st0" d="M471.8,245.6l1.1-2.3c1.2-2.6,2.3-4.1,3.1-4.9c0.8-0.8,1.8-1.2,3.1-1.2c3.8,0,5.8,4.3,5.8,13.2
				c0,2.6-0.3,4.9-0.5,6.6c-0.3,1.8-1.1,3.5-2,5.4c-1.1,2.3-2.6,4.9-4.3,8c-1.8,2.8-4.1,6.1-6.4,9.2c-2.3,3.4-4.9,6.6-7.7,9.7
				c-4.9,6.1-8.7,10.4-12,13.2c-3.4,2.8-6.1,4.3-8.1,4.3c-4.1,0-7.2-2.6-8.9-7.7c-1.2-3.4-2.3-7.2-3.4-11.5
				c-1.1-4.6-1.8-9.2-2.3-13.8c-0.5-4.6-0.8-9.2-0.8-13.5c0-6.1,0.5-10.9,1.5-15c1.1-4.1,2.6-6.9,4.3-8.1c1.8-1.1,3.4-1.5,5.4-1.5
				c2.3,0,4.3,0.3,6.1,1.1c2,0.8,3.4,1.8,4.6,3.1c1.1,1.1,1.8,2.3,2.3,4.1c0.5,1.5,0.8,4.1,1.1,7.4c0.3,3.4,0.3,8,0.3,13.8v3.5v6.9
				v8.1h0.3c1.1-2,1.5-3.5,2.3-4.6c1.5-3.1,4.6-9.5,8.9-18.9c1.1-2,2.6-5.8,5.1-11.5L471.8,245.6z"/>
			<path class="st0" d="M512.9,286.2c0.5,2.8,2.3,4.3,5.7,4.3c3.5,0,8.1-2,14.1-6.4c3.4-2.6,5.7-3.5,6.6-3.5c1.5,0,2.8,0.3,4.1,1.1
				c1.2,0.8,1.8,1.5,1.8,2.3c0,0.8-0.8,2-2,3.4c-2.6,2.6-5.4,5.1-8.7,7.4c-3.4,2.3-6.4,4.3-9.5,6.1c-3.1,1.5-6.1,2.8-9.2,3.8
				s-5.8,1.2-8.1,1.2c-5.8,0-10.7-1.8-14.3-5.1c-3.5-3.4-5.4-8-5.4-13.5c0-4.3,1.1-9.2,2.8-14.7c1.8-5.4,4.3-10.4,7.7-15.3
				c3.8-5.7,8.4-10.1,13.8-14c6.9-4.6,13.3-6.6,19.5-6.6c4.6,0,8,1.5,10.4,4.3c2.6,2.8,3.8,6.6,3.8,11.7c0,3.8-1.1,8-3.1,12
				c-2,4.1-5.1,8.1-8.9,12c-3.4,3.4-6.4,5.8-9.5,7.7c-3.1,1.8-5.8,2.8-8.1,2.8C515.1,286.8,514,286.7,512.9,286.2z M512.8,283.9
				c2.3-1.5,3.8-3.1,5.1-4.3c2.6-3.1,4.6-6.6,5.8-10.7c1.1-2.6,2-5.7,2.6-8.7c0.5-3.4,1.1-6.4,1.1-9.2c0-2.6-0.5-3.8-1.5-3.8
				c-1.5,0-3.8,3.4-6.9,10c-1.8,4.1-3.4,8.1-4.6,12c-1.2,4.1-1.8,7.4-1.8,10.4C512.2,280.5,512.2,282.1,512.8,283.9z"/>
			<path class="st0" d="M589.1,252.8c1.8-5.4,3.5-10.9,4.9-16.9c1.2-5.8,2-10.4,2-13.5c0-0.8-0.3-1.2-0.8-1.2c-0.8,0-2,1.8-4.1,5.1
				c-1.8,3.4-3.5,6.9-4.9,10.4c-2.8,7.7-4.9,14.3-6.4,19.3c-1.5,5.1-2.6,9.5-3.1,13c-0.5,3.5-0.8,7.2-0.8,10.7
				c0,3.1,0.3,5.4,1.1,6.9c0.8,1.5,1.8,2,3.4,2c2.6,0,5.7-1.2,8.7-3.5c3.4-2.3,6.1-5.4,8.7-9.2c2-2.8,3.5-4.3,4.9-4.3
				c1.5,0,2.3,1.2,2.3,3.5c0,5.1-1.5,10-4.9,15c-3.1,4.9-7.4,8.7-12.3,11.7c-5.1,3.1-10.3,4.6-15.3,4.6c-6.4,0-11.8-2-15.8-6.1
				c-4.1-4.1-6.1-9.5-6.1-15.8c0-5.4,1.1-11.5,3.4-18.6c2.3-7.2,5.4-14.3,9.2-21.6c3.8-7.2,8-13.8,12.6-19.6s9.2-10.4,13.5-13.5
				c2.8-2,5.8-3.1,9.2-3.1c2.6,0,4.9,0.8,6.9,2.3c2,1.5,3.8,3.8,4.9,6.6s1.8,6.1,1.8,9.5c0,7.4-1.5,14.7-4.3,21.9
				c-2.8,7.2-6.9,13.2-12.3,18.6c-2.6,2.6-4.9,4.6-7.2,5.8c-2.3,1.5-4.3,2-6.1,2c-1.8,0-2.6-0.8-2.6-2c0-0.8,0.5-2,1.8-4.1
				c1.8-2.6,3.5-6.6,5.8-11.7c0.3-0.5,0.5-1.1,0.8-1.8C588.7,254.5,588.8,253.7,589.1,252.8z"/>
		</g>
	</g>
</g>
</svg>
